<?xml version="1.0" encoding="UTF-8" standalone="no"?>
<!-- Created with Inkscape (http://www.inkscape.org/) -->

<svg
   xmlns:dc="http://purl.org/dc/elements/1.1/"
   xmlns:cc="http://creativecommons.org/ns#"
   xmlns:rdf="http://www.w3.org/1999/02/22-rdf-syntax-ns#"
   xmlns:svg="http://www.w3.org/2000/svg"
   xmlns="http://www.w3.org/2000/svg"
   xmlns:xlink="http://www.w3.org/1999/xlink"
   xmlns:sodipodi="http://sodipodi.sourceforge.net/DTD/sodipodi-0.dtd"
   xmlns:inkscape="http://www.inkscape.org/namespaces/inkscape"
   id="svg2837"
   version="1.1"
   inkscape:version="0.47 r22583"
   width="125.00008"
   height="180"
   sodipodi:docname="defaultprofile.svg">
  <metadata
     id="metadata2843">
    <rdf:RDF>
      <cc:Work
         rdf:about="">
        <dc:format>image/svg+xml</dc:format>
        <dc:type
           rdf:resource="http://purl.org/dc/dcmitype/StillImage" />
        <dc:title></dc:title>
      </cc:Work>
    </rdf:RDF>
  </metadata>
  <defs
     id="defs2841">
    <inkscape:perspective
       sodipodi:type="inkscape:persp3d"
       inkscape:vp_x="0 : 0.5 : 1"
       inkscape:vp_y="0 : 1000 : 0"
       inkscape:vp_z="1 : 0.5 : 1"
       inkscape:persp3d-origin="0.5 : 0.33333333 : 1"
       id="perspective2845" />
    <linearGradient
       id="linearGradient3686">
      <stop
         id="stop3688"
         offset="0"
         style="stop-color:#b7b7b7;stop-opacity:1;" />
      <stop
         id="stop3690"
         offset="1"
         style="stop-color:#f2f2f2;stop-opacity:1;" />
    </linearGradient>
    <inkscape:perspective
       sodipodi:type="inkscape:persp3d"
       inkscape:vp_x="0 : 0.5 : 1"
       inkscape:vp_y="0 : 1000 : 0"
       inkscape:vp_z="1 : 0.5 : 1"
       inkscape:persp3d-origin="0.5 : 0.33333333 : 1"
       id="perspective3083" />
    <inkscape:perspective
       sodipodi:type="inkscape:persp3d"
       inkscape:vp_x="0 : 0.5 : 1"
       inkscape:vp_y="0 : 1000 : 0"
       inkscape:vp_z="1 : 0.5 : 1"
       inkscape:persp3d-origin="0.5 : 0.33333333 : 1"
       id="perspective2824" />
    <inkscape:perspective
       id="perspective10"
       inkscape:persp3d-origin="372.04724 : 350.78739 : 1"
       inkscape:vp_z="744.09448 : 526.18109 : 1"
       inkscape:vp_y="0 : 1000 : 0"
       inkscape:vp_x="0 : 526.18109 : 1"
       sodipodi:type="inkscape:persp3d" />
    <linearGradient
       inkscape:collect="always"
       xlink:href="#linearGradient3686"
       id="linearGradient2972"
       gradientUnits="userSpaceOnUse"
       gradientTransform="matrix(0.77826216,0,0,3.8320625,-257.20226,-3317.785)"
       x1="197.48483"
       y1="744.77075"
       x2="197.48483"
       y2="791.74286" />
  </defs>
  <sodipodi:namedview
     pagecolor="#ffffff"
     bordercolor="#666666"
     borderopacity="1"
     objecttolerance="10"
     gridtolerance="10"
     guidetolerance="10"
     inkscape:pageopacity="0"
     inkscape:pageshadow="2"
     inkscape:window-width="1024"
     inkscape:window-height="575"
     id="namedview2839"
     showgrid="false"
     inkscape:zoom="0.5787234"
     inkscape:cx="-31.999941"
     inkscape:cy="42.611096"
     inkscape:window-x="-1"
     inkscape:window-y="-2"
     inkscape:window-maximized="1"
     inkscape:current-layer="svg2837" />
  <g
     id="g2974"
     transform="translate(-41.007294,-283.77707)">
    <rect
       style="fill:url(#linearGradient2972);fill-opacity:1;stroke:none"
       id="rect3065"
       width="125"
       height="180"
       x="-166.00729"
       y="-463.77707"
       transform="scale(-1,-1)" />
    <path
       sodipodi:nodetypes="csssssssssssssssssssssssscccsssssssssssssaaasssssssssssssssscccsssscccssssssscccscc"
       style="fill:#808080;fill-opacity:1"
       d="m 41.477265,463.19311 c -0.57534,-0.65348 -0.647929,-42.21169 -0.0756,-43.2811 0.566859,-1.05918 3.576891,-2.40223 6.417182,-2.86329 2.256603,-0.3663 4.041768,-0.99722 2.821612,-0.99722 -0.233052,0 -0.423731,-0.23835 -0.423731,-0.52967 0,-0.29131 0.151794,-0.52966 0.337319,-0.52966 0.185525,0 1.200365,-0.83422 2.255199,-1.85383 1.054834,-1.0196 3.145757,-2.48393 4.646495,-3.25407 1.500737,-0.77013 2.813051,-1.62029 2.916254,-1.88923 0.227099,-0.59181 6.022663,-3.33419 9.442318,-4.46798 2.330711,-0.77274 2.586863,-0.96772 4.488578,-3.41667 1.246004,-1.60454 1.935309,-2.79958 1.803557,-3.12681 -0.117289,-0.29132 -0.730997,-2.51591 -1.363798,-4.94354 -0.992884,-3.80902 -2.034032,-6.89975 -2.485147,-7.37734 -0.072,-0.0762 -0.390296,0.0767 -0.707321,0.33978 -0.488947,0.40579 -0.637762,0.39447 -0.98078,-0.0746 -0.222402,-0.30415 -1.045427,-0.88005 -1.828945,-1.27977 -1.102723,-0.56257 -1.680837,-1.22365 -2.558848,-2.92608 -0.623853,-1.20962 -1.134277,-2.47539 -1.134277,-2.81281 0,-0.33743 -0.22451,-1.15083 -0.498915,-1.80757 -0.274402,-0.65674 -0.921002,-2.94046 -1.436888,-5.07494 -1.092673,-4.52093 -2.115282,-7.86363 -3.049483,-9.96815 -0.455748,-1.02668 -0.662031,-2.30223 -0.656713,-4.06076 0.0077,-2.52881 0.201735,-3.15456 1.98448,-6.39809 0.700576,-1.27464 0.735053,-2.76621 0.156233,-6.75909 -0.253381,-1.7479 -0.435109,-4.78622 -0.403841,-6.75183 l 0.05685,-3.57385 -0.90074,0.17219 c -1.063018,0.20321 -1.068461,0.18146 -0.326644,-1.30555 0.42787,-0.85768 0.65017,-1.0289 0.872767,-0.67219 0.174761,0.28005 0.209468,-0.0765 0.08366,-0.85949 -0.168455,-1.04836 -0.06102,-1.5071 0.496179,-2.11865 0.901075,-0.98898 1.406382,-2.74713 1.460108,-5.08029 0.02316,-1.00538 0.208052,-2.26446 0.410885,-2.79795 0.202833,-0.53349 0.270387,-1.41799 0.150121,-1.96556 -0.156954,-0.71461 -0.01158,-1.25882 0.515085,-1.92838 0.403558,-0.51304 0.733744,-1.11212 0.733744,-1.33128 0,-0.21917 0.533171,-1.19086 1.184824,-2.15932 0.65165,-0.96846 1.309549,-2.15489 1.461997,-2.63651 0.152448,-0.48162 0.691848,-1.28138 1.19867,-1.77723 0.506818,-0.49586 1.195968,-1.373 1.531444,-1.9492 1.887141,-3.24132 5.067716,-6.86643 8.835728,-8.36993 14.895097,-5.94338 32.506377,-3.7456 48.111197,-0.0473 1.61698,0.38322 2.9605,1.51075 4.45287,2.24173 0.61989,0.30363 1.15405,0.405 1.86951,0.89053 0.71546,0.48553 1.514,0.88277 1.77452,0.88277 1.04491,0 6.3834,4.22923 7.2624,5.75338 1.56168,2.70789 3.4034,4.60282 4.25669,4.37968 0.41576,-0.10873 0.97895,-0.1121 1.25153,-0.007 0.73342,0.28144 0.60116,1.44597 -0.19283,1.69798 -0.6326,0.20077 -0.56098,0.40855 0.88277,2.56128 0.86417,1.28852 1.57122,2.47526 1.57122,2.63718 0,0.16193 0.42328,0.96493 0.94062,1.78445 0.51734,0.81952 0.97868,1.83677 1.0252,2.26055 0.168,1.5304 0.57594,3.15733 1.26954,5.06312 0.7796,2.14208 0.96665,5.47319 0.3424,6.09744 -0.21988,0.21988 -0.39977,1.02488 -0.39977,1.7889 0,0.76402 -0.17633,1.97764 -0.39183,2.69692 -0.3225,1.07641 -0.28682,1.51086 0.20165,2.45546 0.50953,0.98532 0.52263,1.20571 0.0926,1.55805 -0.2755,0.22571 -0.70053,1.34684 -0.94453,2.4914 l -0.44363,2.08101 1.12228,0.87832 c 0.61725,0.48307 1.25516,1.22782 1.41757,1.655 0.16241,0.42717 0.16418,3.783 0.004,7.4574 -0.32981,7.56261 -1.12297,11.95007 -2.74905,15.20673 -0.56772,1.13701 -1.13683,2.50134 -1.2647,3.03186 -0.50888,2.11136 -3.72857,4.73194 -6.81182,5.54429 l -1.46945,0.38715 -0.20186,3.08452 c -0.27887,4.26137 -1.71041,9.93567 -3.39243,13.4469 -1.92997,4.02879 -1.87761,4.74883 0.55227,7.59525 2.20566,2.58375 4.64628,4.28446 6.55674,4.56896 1.73926,0.259 5.18098,2.93744 7.51147,5.84561 1.03503,1.29159 3.09487,3.59686 4.57743,5.12282 1.48255,1.52597 2.71388,2.95606 2.73628,3.17799 0.0224,0.22193 0.0621,0.56798 0.0883,0.76899 0.0645,0.49584 1.4513,2.29666 3.57864,4.64705 l 1.76555,1.95066 0.10901,15.14943 c 0.0938,13.03815 0.0358,15.22262 -0.41616,15.6746 -0.77587,0.77586 -123.3926,0.77288 -124.075725,-0.003 l -1.4e-5,1.7e-4 z"
       id="path2863" />
  </g>
</svg>
